<svg width="173" height="75" viewBox="0 0 173 75" fill="none" xmlns="http://www.w3.org/2000/svg">
<path d="M0.5 18.999H4.97282V40.2735H0.5V18.999Z" fill="#29292E"/>
<path d="M22.5 32.3887C22.5 32.4461 22.4713 32.8475 22.414 33.593H10.7445C10.9548 34.5487 11.4518 35.3037 12.2355 35.858C13.0192 36.4124 13.994 36.6895 15.16 36.6895C15.9628 36.6895 16.67 36.5748 17.2817 36.3455C17.9125 36.097 18.4955 35.7147 19.0307 35.1986L21.4105 37.7791C19.9578 39.442 17.836 40.2735 15.0453 40.2735C13.3059 40.2735 11.7671 39.939 10.4291 39.27C9.0911 38.5819 8.05892 37.6357 7.33256 36.4315C6.60621 35.2273 6.24303 33.8606 6.24303 32.3314C6.24303 30.8213 6.59665 29.4642 7.30389 28.26C8.03024 27.0366 9.01465 26.0905 10.2571 25.4215C11.5187 24.7333 12.9236 24.3893 14.4719 24.3893C15.9819 24.3893 17.3486 24.7142 18.5719 25.3641C19.7953 26.014 20.751 26.9506 21.4391 28.174C22.1464 29.3782 22.5 30.7831 22.5 32.3887ZM14.5005 27.7726C13.4875 27.7726 12.6369 28.0593 11.9487 28.6327C11.2606 29.2062 10.8401 29.9899 10.6872 30.9838H18.2852C18.1323 30.009 17.7118 29.2348 17.0237 28.6614C16.3355 28.0688 15.4945 27.7726 14.5005 27.7726Z" fill="#29292E"/>
<path d="M71.4861 24.6187C73.4167 24.6187 74.9459 25.1921 76.0736 26.339C77.2205 27.4667 77.794 29.1679 77.794 31.4426V40.2735H73.3211V32.1307C73.3211 30.9074 73.0631 29.9994 72.547 29.4069C72.05 28.7952 71.3332 28.4894 70.3966 28.4894C69.3453 28.4894 68.5138 28.8334 67.9022 29.5216C67.2905 30.1906 66.9847 31.1941 66.9847 32.5321V40.2735H62.5118V32.1307C62.5118 29.7031 61.537 28.4894 59.5873 28.4894C58.5551 28.4894 57.7332 28.8334 57.1215 29.5216C56.5099 30.1906 56.204 31.1941 56.204 32.5321V40.2735H51.7312V32.5608V24.848H56.0033V26.6257C56.5768 25.9758 57.2745 25.4788 58.0964 25.1347C58.9374 24.7907 59.8549 24.6187 60.8489 24.6187C61.9384 24.6187 62.9228 24.8385 63.8021 25.2781C64.6814 25.6986 65.3886 26.3199 65.9238 27.1418C66.5546 26.339 67.3478 25.7177 68.3036 25.2781C69.2784 24.8385 70.3393 24.6187 71.4861 24.6187Z" fill="#29292E"/>
<path d="M95.9343 32.6181C95.9343 32.6755 95.9056 33.0769 95.8483 33.8223H84.1788C84.3891 34.7781 84.8861 35.5331 85.6698 36.0874C86.4535 36.6417 87.4283 36.9189 88.5943 36.9189C89.3971 36.9189 90.1044 36.8042 90.716 36.5748C91.3468 36.3264 91.9298 35.9441 92.465 35.428L94.8448 38.0084C93.3921 39.6714 91.2703 40.5029 88.4796 40.5029C86.7402 40.5029 85.2015 40.1684 83.8634 39.4994C82.5254 38.8113 81.4932 37.8651 80.7669 36.6609C80.0405 35.4566 79.6773 34.0899 79.6773 32.5608C79.6773 31.0507 80.0309 29.6936 80.7382 28.4894C81.4645 27.266 82.449 26.3199 83.6914 25.6508C84.953 24.9627 86.3579 24.6187 87.9062 24.6187C89.4162 24.6187 90.7829 24.9436 92.0063 25.5935C93.2296 26.2434 94.1853 27.18 94.8734 28.4033C95.5807 29.6076 95.9343 31.0125 95.9343 32.6181ZM87.9348 28.0019C86.9218 28.0019 86.0712 28.2887 85.383 28.8621C84.6949 29.4355 84.2744 30.2192 84.1215 31.2132H91.7195C91.5666 30.2384 91.1461 29.4642 90.458 28.8908C89.7699 28.2982 88.9288 28.0019 87.9348 28.0019Z" fill="#29292E"/>
<path d="M43.5761 24.6187C45.5067 24.6187 47.0358 25.1921 48.1636 26.339C49.3105 27.4668 49.8839 29.168 49.8839 31.4426V40.2735H45.4111V32.1307C45.4111 30.9074 45.153 29.9994 44.6369 29.4069C44.14 28.7952 43.4232 28.4894 42.4865 28.4894C41.4352 28.4894 40.6037 28.8335 39.9921 29.5216C39.3804 30.1906 39.0746 31.1941 39.0746 32.5321V40.2735H34.6018V32.1307C34.6018 29.7032 33.627 28.4894 31.6773 28.4894C30.6451 28.4894 29.8232 28.8335 29.2115 29.5216C28.5998 30.1906 28.294 31.1941 28.294 32.5321V40.2735H23.8212V32.5608V24.8481H28.0933V26.6257C28.6667 25.9758 29.3644 25.4789 30.1863 25.1348C31.0274 24.7907 31.9449 24.6187 32.9388 24.6187C34.0283 24.6187 35.0127 24.8385 35.892 25.2782C36.7713 25.6987 37.4785 26.3199 38.0137 27.1418C38.6445 26.339 39.4378 25.7178 40.3935 25.2782C41.3683 24.8385 42.4292 24.6187 43.5761 24.6187Z" fill="#29292E"/>
<path d="M122.086 24.848L119.018 40.2735H114.775L115.061 38.7539C113.781 39.9199 112.204 40.5029 110.331 40.5029C109.126 40.5029 108.018 40.2257 107.005 39.6714C105.992 39.1171 105.179 38.3238 104.568 37.2916C103.975 36.2403 103.679 35.0074 103.679 33.593C103.679 31.8918 104.051 30.3626 104.797 29.0055C105.561 27.6292 106.594 26.5588 107.893 25.7942C109.193 25.0105 110.627 24.6187 112.194 24.6187C114.564 24.6187 116.237 25.3928 117.212 26.9411L117.613 24.848H122.086ZM111.707 36.8042C112.586 36.8042 113.37 36.594 114.058 36.1734C114.746 35.7338 115.281 35.1317 115.664 34.3671C116.046 33.6025 116.237 32.7233 116.237 31.7293C116.237 30.678 115.922 29.8465 115.291 29.2348C114.679 28.6232 113.819 28.3173 112.71 28.3173C111.831 28.3173 111.047 28.5372 110.359 28.9768C109.671 29.3973 109.136 29.9899 108.754 30.7544C108.371 31.519 108.18 32.3983 108.18 33.3923C108.18 34.4436 108.486 35.2751 109.098 35.8867C109.728 36.4984 110.598 36.8042 111.707 36.8042Z" fill="url(#paint0_linear)"/>
<path d="M127.632 40.5029C126.294 40.5029 125.023 40.3595 123.819 40.0728C122.634 39.767 121.707 39.3751 121.038 38.8973L122.758 35.6573C123.427 36.097 124.239 36.4506 125.195 36.7182C126.17 36.9858 127.145 37.1196 128.119 37.1196C129.133 37.1196 129.888 36.9954 130.385 36.7469C130.882 36.4793 131.13 36.1065 131.13 35.6287C131.13 35.2464 130.91 34.9692 130.471 34.7972C130.031 34.6252 129.324 34.4436 128.349 34.2524C127.24 34.0422 126.323 33.8128 125.596 33.5643C124.889 33.3158 124.268 32.9144 123.733 32.3601C123.217 31.7866 122.959 31.0125 122.959 30.0376C122.959 28.3364 123.666 27.008 125.08 26.0523C126.514 25.0965 128.387 24.6187 130.7 24.6187C131.77 24.6187 132.812 24.7333 133.825 24.9627C134.838 25.1921 135.698 25.5075 136.406 25.9089L134.8 29.1775C133.538 28.3938 132.019 28.0019 130.241 28.0019C129.266 28.0019 128.521 28.1453 128.005 28.432C127.508 28.7187 127.259 29.0819 127.259 29.5216C127.259 29.923 127.479 30.2192 127.919 30.4104C128.358 30.5824 129.094 30.7736 130.127 30.9838C131.216 31.1941 132.105 31.4235 132.793 31.6719C133.5 31.9013 134.112 32.2932 134.628 32.8475C135.144 33.4018 135.402 34.1568 135.402 35.1126C135.402 36.8329 134.676 38.1614 133.223 39.098C131.79 40.0346 129.926 40.5029 127.632 40.5029Z" fill="url(#paint1_linear)"/>
<path d="M147.595 31.5573L152.899 40.2735H147.71L144.04 34.2811L141.316 36.5462L140.57 40.2735H136.097L140.341 18.999H144.814L142.434 30.8978L149.831 24.848H155.652L147.595 31.5573Z" fill="url(#paint2_linear)"/>
<path d="M97.0842 15.9024V8.73438C97.0842 5.56737 99.6516 3 102.819 3H164.463C167.63 3 170.198 5.56737 170.198 8.73438V48.8751C170.198 52.0421 167.63 54.6094 164.463 54.6094H154.428L157.782 70.2603C158.075 71.6282 156.436 72.563 155.408 71.6141L140.092 57.4766H102.819C99.6516 57.4766 97.0842 54.9093 97.0842 51.7422V48.8751" stroke="url(#paint3_linear)" stroke-width="4.30079"/>
<defs>
<linearGradient id="paint0_linear" x1="104" y1="19" x2="140" y2="50.5" gradientUnits="userSpaceOnUse">
<stop stop-color="#75FBD2"/>
<stop offset="1" stop-color="#8F69FF"/>
</linearGradient>
<linearGradient id="paint1_linear" x1="104" y1="19" x2="140" y2="50.5" gradientUnits="userSpaceOnUse">
<stop stop-color="#75FBD2"/>
<stop offset="1" stop-color="#8F69FF"/>
</linearGradient>
<linearGradient id="paint2_linear" x1="104" y1="19" x2="140" y2="50.5" gradientUnits="userSpaceOnUse">
<stop stop-color="#75FBD2"/>
<stop offset="1" stop-color="#8F69FF"/>
</linearGradient>
<linearGradient id="paint3_linear" x1="97.0842" y1="3" x2="157.295" y2="77.547" gradientUnits="userSpaceOnUse">
<stop stop-color="#75FBD2"/>
<stop offset="1" stop-color="#8F69FF"/>
</linearGradient>
</defs>
</svg>
